<svg width="194" height="122" viewBox="0 0 194 122" fill="none" xmlns="http://www.w3.org/2000/svg">
<path d="M194 0H0V121.25H194V0Z" fill="white"/>
<g opacity="0.45">
<path d="M194 0H0V121.25H194V0Z" fill="black"/>
</g>
<g clip-path="url(#clip0_image)">
<path d="M126 40H68V82H126V40Z" fill="white"/>
<path d="M122 44H72V78H122V44Z" fill="#E0E0E0"/>
<path d="M83 56C85.2091 56 87 54.2091 87 52C87 49.7909 85.2091 48 83 48C80.7909 48 79 49.7909 79 52C79 54.2091 80.7909 56 83 56Z" fill="#A8A8A8"/>
<path d="M72 78V70L84 60L94 68L106 56L122 70V78H72Z" fill="#7C7C7C"/>
</g>
<defs>
<clipPath id="clip0_image">
<rect width="58" height="42" fill="white" transform="translate(68 40)"/>
</clipPath>
</defs>
</svg>
