<svg width="194" height="122" viewBox="0 0 194 122" fill="none" xmlns="http://www.w3.org/2000/svg">
<path d="M194 0H0V121.25H194V0Z" fill="white"/>
<g opacity="0.45">
<path d="M194 0H0V121.25H194V0Z" fill="black"/>
</g>
<path d="M152.976 47.4866H41.0249V73.7635H152.976V47.4866Z" fill="white"/>
<path d="M69.7914 51.8516H45.7131V54.7414H69.7914V51.8516Z" fill="#7C7C7C"/>
<path d="M147.967 56.8835H45.7131V58.286H147.967V56.8835Z" fill="#CECECE"/>
<path d="M125.922 56.8835H45.7131V58.286H125.922V56.8835Z" fill="#2B79BD"/>
<path d="M65.5425 60.428H48.5918V62.0446H65.5425V60.428Z" fill="#A8A8A8"/>
<path d="M60.8906 63.4219H48.5918V64.4858H60.8906V63.4219Z" fill="#BABABA"/>
<path d="M63.3277 65.5791H48.5918V66.6431H63.3277V65.5791Z" fill="#BABABA"/>
<path d="M62.2829 67.6677H48.5918V68.7317H62.2829V67.6677Z" fill="#BABABA"/>
<path d="M46.5215 62.0446C46.9679 62.0446 47.3298 61.6827 47.3298 61.2363C47.3298 60.7899 46.9679 60.428 46.5215 60.428C46.075 60.428 45.7131 60.7899 45.7131 61.2363C45.7131 61.6827 46.075 62.0446 46.5215 62.0446Z" fill="#2B79BD"/>
<path d="M92.2794 60.428H75.3286V62.0446H92.2794V60.428Z" fill="#A8A8A8"/>
<path d="M87.6274 63.4219H75.3286V64.4858H87.6274V63.4219Z" fill="#BABABA"/>
<path d="M90.0645 65.5791H75.3286V66.6431H90.0645V65.5791Z" fill="#BABABA"/>
<path d="M89.0198 67.6677H75.3286V68.7317H89.0198V67.6677Z" fill="#BABABA"/>
<path d="M73.2573 62.0446C73.7037 62.0446 74.0656 61.6827 74.0656 61.2363C74.0656 60.7899 73.7037 60.428 73.2573 60.428C72.8109 60.428 72.449 60.7899 72.449 61.2363C72.449 61.6827 72.8109 62.0446 73.2573 62.0446Z" fill="#2B79BD"/>
<path d="M119.016 60.428H102.065V62.0446H119.016V60.428Z" fill="#A8A8A8"/>
<path d="M114.364 63.4219H102.065V64.4858H114.364V63.4219Z" fill="#BABABA"/>
<path d="M116.801 65.5791H102.065V66.6431H116.801V65.5791Z" fill="#BABABA"/>
<path d="M115.756 67.6677H102.065V68.7317H115.756V67.6677Z" fill="#BABABA"/>
<path d="M99.9939 62.0446C100.44 62.0446 100.802 61.6827 100.802 61.2363C100.802 60.7899 100.44 60.428 99.9939 60.428C99.5475 60.428 99.1855 60.7899 99.1855 61.2363C99.1855 61.6827 99.5475 62.0446 99.9939 62.0446Z" fill="#2B79BD"/>
<path d="M145.753 60.428H128.802V62.0446H145.753V60.428Z" fill="#A8A8A8"/>
<path d="M141.101 63.4219H128.802V64.4858H141.101V63.4219Z" fill="#BABABA"/>
<path d="M143.538 65.5791H128.802V66.6431H143.538V65.5791Z" fill="#BABABA"/>
<path d="M142.493 67.6677H128.802V68.7317H142.493V67.6677Z" fill="#BABABA"/>
<path d="M126.73 62.0446C127.177 62.0446 127.539 61.6827 127.539 61.2363C127.539 60.7899 127.177 60.428 126.73 60.428C126.284 60.428 125.922 60.7899 125.922 61.2363C125.922 61.6827 126.284 62.0446 126.73 62.0446Z" stroke="#2B79BD" stroke-miterlimit="10"/>
</svg>
