<svg width="194" height="122" viewBox="0 0 194 122" fill="none" xmlns="http://www.w3.org/2000/svg">
<path d="M194 0H0V121.25H194V0Z" fill="white"/>
<g opacity="0.45">
<path d="M194 0H0V121.25H194V0Z" fill="black"/>
</g>
<g clip-path="url(#clip0_15162_6167)">
<path d="M138 43H56V79H138V43Z" fill="white"/>
<path d="M110.528 55.9709H77.6011V58.8032H110.528V55.9709Z" fill="#7C7C7C"/>
<path d="M100.561 63.2827H83.1152V66.115H100.561V63.2827Z" fill="#A8A8A8"/>
<path d="M80.4226 63.2827H77.6011V66.115H80.4226V63.2827Z" fill="#BABABA"/>
<path d="M96.644 68.3147H83.1152V71.147H96.644V68.3147Z" fill="#A8A8A8"/>
<path d="M80.4226 68.3147H77.6011V71.147H80.4226V68.3147Z" fill="#BABABA"/>
<path d="M99.261 73.5557H83.1152V76.3879H99.261V73.5557Z" fill="#A8A8A8"/>
<path d="M80.4226 73.5557H77.6011V76.3879H80.4226V73.5557Z" fill="#BABABA"/>
<path d="M109.058 63.2827H106.236V66.115H109.058V63.2827Z" fill="#BABABA"/>
<path d="M127.899 63.2827H110.89V66.115H127.899V63.2827Z" fill="#A8A8A8"/>
<path d="M109.058 68.3147H106.236V71.147H109.058V68.3147Z" fill="#BABABA"/>
<path d="M131.958 68.3147H110.89V71.147H131.958V68.3147Z" fill="#A8A8A8"/>
<path d="M109.058 73.5557H106.236V76.3879H109.058V73.5557Z" fill="#BABABA"/>
<path d="M133.729 73.5557H110.89V76.3879H133.729V73.5557Z" fill="#A8A8A8"/>
<path d="M115.689 47.7537H77.6011V52.0519H115.689V47.7537Z" fill="#353535"/>
<path d="M67.1742 58.8031C70.2198 58.8031 72.6888 56.3296 72.6888 53.2784C72.6888 50.2272 70.2198 47.7537 67.1742 47.7537C64.1286 47.7537 61.6597 50.2272 61.6597 53.2784C61.6597 56.3296 64.1286 58.8031 67.1742 58.8031Z" fill="#A9DAFF"/>
<path d="M70.0039 51.1299H64.3442V55.4281H70.0039V51.1299Z" fill="#2B79BD"/>
</g>
<defs>
<clipPath id="clip0_15162_6167">
<rect width="82" height="36" fill="white" transform="translate(56 43)"/>
</clipPath>
</defs>
</svg>
