<svg width="194" height="122" viewBox="0 0 194 122" fill="none" xmlns="http://www.w3.org/2000/svg">
<path d="M194 0H0V121.25H194V0Z" fill="white"/>
<g opacity="0.45">
<path d="M194 0H0V121.25H194V0Z" fill="black"/>
</g>
<path d="M122 27H73V94H122V27Z" fill="white"/>
<path d="M106.66 32.1121H78.4858V35.4964H106.66V32.1121Z" fill="#7C7C7C"/>
<path d="M83 87L83 38L81 38L81 87L83 87Z" fill="#CECECE"/>
<path d="M83 76L83 38L81 38L81 76L83 76Z" fill="#2B79BD"/>
<path d="M106.829 38H89.8787V39.6167H106.829V38Z" fill="#A8A8A8"/>
<path d="M102.177 40.9939H89.8787V42.0579H102.177V40.9939Z" fill="#BABABA"/>
<path d="M104.615 43.1511H89.8787V44.2151H104.615V43.1511Z" fill="#BABABA"/>
<path d="M103.57 45.2396H89.8787V46.3036H103.57V45.2396Z" fill="#BABABA"/>
<path d="M87.8083 39.6167C88.2548 39.6167 88.6167 39.2548 88.6167 38.8083C88.6167 38.3619 88.2548 38 87.8083 38C87.3619 38 87 38.3619 87 38.8083C87 39.2548 87.3619 39.6167 87.8083 39.6167Z" fill="#2B79BD"/>
<path d="M106.83 51H89.8796V52.6167H106.83V51Z" fill="#A8A8A8"/>
<path d="M102.178 53.9939H89.8796V55.0579H102.178V53.9939Z" fill="#BABABA"/>
<path d="M104.616 56.1511H89.8796V57.2151H104.616V56.1511Z" fill="#BABABA"/>
<path d="M103.571 58.2396H89.8796V59.3036H103.571V58.2396Z" fill="#BABABA"/>
<path d="M87.8083 52.6167C88.2548 52.6167 88.6167 52.2548 88.6167 51.8083C88.6167 51.3619 88.2548 51 87.8083 51C87.3619 51 87 51.3619 87 51.8083C87 52.2548 87.3619 52.6167 87.8083 52.6167Z" fill="#2B79BD"/>
<path d="M106.83 64H89.8796V65.6167H106.83V64Z" fill="#A8A8A8"/>
<path d="M102.178 66.9939H89.8796V68.0579H102.178V66.9939Z" fill="#BABABA"/>
<path d="M104.616 69.1511H89.8796V70.2151H104.616V69.1511Z" fill="#BABABA"/>
<path d="M103.571 71.2396H89.8796V72.3036H103.571V71.2396Z" fill="#BABABA"/>
<path d="M87.8083 65.6167C88.2548 65.6167 88.6167 65.2548 88.6167 64.8083C88.6167 64.3619 88.2548 64 87.8083 64C87.3619 64 87 64.3619 87 64.8083C87 65.2548 87.3619 65.6167 87.8083 65.6167Z" fill="#2B79BD"/>
<path d="M106.83 77H89.8796V78.6167H106.83V77Z" fill="#A8A8A8"/>
<path d="M102.178 79.9939H89.8796V81.0579H102.178V79.9939Z" fill="#BABABA"/>
<path d="M104.616 82.1511H89.8796V83.2151H104.616V82.1511Z" fill="#BABABA"/>
<path d="M103.571 84.2396H89.8796V85.3036H103.571V84.2396Z" fill="#BABABA"/>
<path d="M87.8083 78.6167C88.2548 78.6167 88.6167 78.2548 88.6167 77.8083C88.6167 77.3619 88.2548 77 87.8083 77C87.3619 77 87 77.3619 87 77.8083C87 78.2548 87.3619 78.6167 87.8083 78.6167Z" stroke="#2B79BD" stroke-miterlimit="10"/>
</svg>
