<?xml version="1.0" encoding="UTF-8"?><svg id="Layer_2" xmlns="http://www.w3.org/2000/svg" viewBox="0 0 308.71 154.31"><defs><style>.cls-1{fill:#8ecdf2;}.cls-1,.cls-2,.cls-3,.cls-4,.cls-5{stroke-width:0px;}.cls-2{fill:#8dcdf2;}.cls-3{fill:#92cdf1;}.cls-4{fill:#91cdf1;}.cls-5{fill:#1a375d;}</style></defs><g id="Laag_1"><path class="cls-5" d="M85.01,38.15c0,15.88-5.16,21.52-19.75,21.52h-32.56c-15.8,0-20.8-7.09-20.8-21.84v-15.96C11.9,7.11,16.9.02,32.7.02h29.82c10.48,0,21.68,2.58,21.68,16.04v2.1h-7.42c0-10.88-3.3-11.69-22.81-11.69h-20.47c-7.58,0-13.7,2.26-13.7,12.41v21.92c0,10.16,6.13,12.41,13.7,12.41h30.87c7.9,0,12.73-2.74,12.73-10.8v-5.88h-29.9v-6.45h37.8v8.06Z"/><path class="cls-5" d="M96.77,52.9L150.05,7.11h-51.59V.67h64v5.64l-53.52,46.27h54.65v6.45h-66.82v-6.13Z"/><path class="cls-5" d="M131.43,77.62h9.83l34.66,58.36h-8.95l-7.25-12.33h-46.75l-7.25,12.33h-8.95l34.66-58.36ZM136.35,84.07l-19.59,33.13h39.17l-19.59-33.13Z"/><path class="cls-5" d="M185.51,98.82c0-14.75,5-21.84,20.8-21.84h30.23c14.35,0,18.3,6.69,18.3,14.51v5h-6.93v-2.66c0-9.91-6.13-10.4-13.38-10.4h-27.4c-7.58,0-13.7,2.26-13.7,12.41v21.92c0,10.16,6.13,12.41,13.7,12.41h27.65c10.64,0,13.7-2.26,13.7-10.16v-3.63h7.42v3.95c0,10.56-3.39,16.28-19.75,16.28h-29.82c-15.8,0-20.8-7.09-20.8-21.84v-15.96Z"/><path class="cls-2" d="M264.02,26.66c-9.29-8.63-18.59-17.26-27.88-25.89-1.12-1.04-3.35-.92-5.18-.25-.79.21-1.5.53-1.97.98-9.07,8.63-18.15,17.26-27.22,25.89-.68.65-1.16,1.93-.4,2.72,9.07,9.52,18.15,19.03,27.22,28.55,1.83,1.92,5.51.96,7.15-.73,9.29-9.52,18.59-19.03,27.88-28.55.02-.02.05-.06.07-.08h0c.33-.25.51-.79.51-.79h0c.28-.63.35-1.36-.18-1.86ZM209.2,28.69c-.33.53-.76.66,0,0h0ZM242.17,42.43c-3.08,3.16-6.17,6.31-9.25,9.47-7.71-7.85-15.86-15.55-22.89-23.94.74-.66,1.45-1.39,2.16-2.08,3.31-3.15,6.62-6.3,9.93-9.45,3.23-3.07,6.46-6.14,9.69-9.21,3.57,3.31,7.14,6.63,10.71,9.94,3.39,3.15,6.78,6.3,10.17,9.45,1.42,1.32,2.06,2.24,2.5,2.55h0s.04.02.04.02c.03.02.05.03.08.04l.29.15c-3.18,4.66-9.9,9.45-13.41,13.05Z"/><path class="cls-3" d="M281.16,35.08c-2.64-2.05-5.29-4.1-7.93-6.15-.63-.49-1.9-1.83-.94-2.67,2.43-2.13,4.85-4.26,7.28-6.39,1.23-1.08,3.09-.94,4.51-.29.82.38,2.93,2,1.69,3.09-2.43,2.13-4.85,4.26-7.28,6.39-.31-.89-.63-1.78-.94-2.67,2.64,2.05,5.29,4.1,7.93,6.15,3.6,2.79-1.95,4.38-4.32,2.54h0Z"/><path class="cls-4" d="M28.89,125c0,9.4,0,18.81,0,28.21,0,1.01,2.24.97,2.76.97,8.96,0,17.92,0,26.88,0,21.52,0,43.04,0,64.56,0,26.04,0,52.08,0,78.12,0,22.51,0,45.02,0,67.54,0,10.93,0,21.9.3,32.83,0,.15,0,.31,0,.46,0,1.84,0,6.66-1,6.66-3.5V26.49c0-1.01-2.24-.97-2.76-.97h-25.5c-1.9,0-5.11.72-6.27,2.39s1.06,2.08,2.37,2.08h25.5l-2.76-.97v124.19c2.22-1.17,4.44-2.33,6.66-3.5-8.96,0-17.92,0-26.88,0-21.52,0-43.04,0-64.56,0-26.04,0-52.08,0-78.12,0-22.51,0-45.02,0-67.54,0-7.42,0-14.84,0-22.26,0-3.46,0-7.12-.35-10.57,0-.15.02-.31,0-.46,0l2.76.97c0-9.4,0-18.81,0-28.21,0-2.13-9.43-.61-9.43,2.53h0Z"/><path class="cls-2" d="M61.65,107.48c-1.69,16.78-23.68,14.39-37.21,13.89-17.25-.64-20.46-13.1-18.84-26.12,2.09-16.76,23.44-14.4,37.21-13.89,18.84.7,18.84,13.09,18.84,26.12,0,2.04,4.45,1.43,4.45-.31,0-6.49,1.31-14.59-2.57-20.42-4.58-6.88-12.18-8.12-20.32-8.24-16.24-.23-40.16-2.97-42.06,17.05-1.5,15.76,3.24,28.42,22.89,28.65,16.32.19,40.04,3.05,42.06-17.05.2-2.01-4.28-1.45-4.45.31Z"/><path class="cls-1" d="M36.68,125.36c-2.58,0-5.14-.07-7.61-.13-1.73-.05-3.42-.09-5.03-.11-8.29-.1-14.53-2.41-18.54-6.87-4.44-4.94-6.2-12.6-5.24-22.77,1.81-18.98,22.86-18.4,38.24-17.98,1.63.04,3.22.09,4.74.11,8.03.11,16.13,1.24,21.06,8.64,3.28,4.93,3.04,11.32,2.82,16.96-.05,1.25-.09,2.48-.1,3.65,0,.11,0,.23,0,.35,0,.11-.01.21-.03.32-1.75,15.78-16.21,17.83-30.29,17.83ZM30.81,79.16c-13.56,0-27.37,1.95-28.76,16.49-.92,9.64.69,16.84,4.78,21.39,3.66,4.07,9.45,6.19,17.22,6.28,1.62.02,3.32.07,5.06.11,15.33.4,32.59.87,35.73-13.96-.85.25-1.84.26-2.58,0-2.97,14.37-21.92,13.51-34.63,12.93-1.11-.05-2.19-.1-3.22-.14-6.9-.26-12.12-2.4-15.49-6.37-3.93-4.62-5.34-11.6-4.2-20.76,2.03-16.3,21.01-15.44,34.86-14.82,1.13.05,2.22.1,3.27.14,18.63.69,19.65,12.66,19.7,24.89.7-.29,1.52-.41,2.28-.34.14.01.28.04.41.07.02-.63.04-1.28.07-1.93.21-5.63.43-11.46-2.52-15.9-4.46-6.71-12.05-7.73-19.58-7.84-1.53-.02-3.12-.07-4.76-.11-2.48-.07-5.05-.14-7.63-.14ZM30.42,81.85c-11.43,0-22.49,1.95-23.92,13.51-1.07,8.64.2,15.15,3.79,19.37,3.04,3.57,7.81,5.5,14.19,5.73,1.03.04,2.12.09,3.23.14,13.31.6,31.53,1.44,33.04-13.17,0-13.16-.02-24.51-17.98-25.17-1.05-.04-2.15-.09-3.28-.14-2.93-.13-6.01-.27-9.07-.27ZM62.56,107.53c0,.06.04.11.12.16.17.11.47.17.8.17.91,0,1.62-.41,1.71-.65,0-.03,0-.06.01-.1v-.09c-.05-.16-.43-.21-.56-.23-.93-.08-1.99.39-2.09.73Z"/></g></svg>