<svg width="234" height="158" viewBox="0 0 234 158" fill="none" xmlns="http://www.w3.org/2000/svg">
<path d="M234 0H0V158H234V0Z" fill="white"/>
<g opacity="0.45">
<path d="M234 0H0V158H234V0Z" fill="black"/>
</g>
<path d="M163.621 40.3426H70.3794V116.908H163.621V40.3426Z" fill="white"/>
<path d="M99.1461 44.6986H75.0679V47.5824H99.1461V44.6986Z" fill="#7C7C7C"/>
<path d="M89.2559 52.5676H77.2168V54.181H89.2559V52.5676Z" fill="#BABABA"/>
<path d="M116.277 52.5676H102.109V54.181H116.277V52.5676Z" fill="#353535"/>
<path d="M130.096 52.5676H123.702V54.181H130.096V52.5676Z" fill="#BABABA"/>
<path d="M159.25 52.5676H134.75V54.181H159.25V52.5676Z" fill="#353535"/>
<path d="M130.096 85.1146H123.702V86.728H130.096V85.1146Z" fill="#BABABA"/>
<path d="M159.25 85.1146H134.75V86.728H159.25V85.1146Z" fill="#353535"/>
<path d="M91.1818 56.6363H77.2168V58.2496H91.1818V56.6363Z" fill="#BABABA"/>
<path d="M116.278 56.6363H101.052V58.2496H116.278V56.6363Z" fill="#353535"/>
<path d="M91.1818 109.524H77.2168V111.138H91.1818V109.524Z" fill="#BABABA"/>
<path d="M116.278 109.524H101.052V111.138H116.278V109.524Z" fill="#353535"/>
<path d="M133.803 56.6363H123.702V58.2496H133.803V56.6363Z" fill="#BABABA"/>
<path d="M159.25 56.6363H147V58.2496H159.25V56.6363Z" fill="#353535"/>
<path d="M133.803 109.524H123.702V111.138H133.803V109.524Z" fill="#BABABA"/>
<path d="M159.25 109.524H147V111.138H159.25V109.524Z" fill="#353535"/>
<path d="M135.741 60.7049H123.702V62.3182H135.741V60.7049Z" fill="#BABABA"/>
<path d="M159.25 60.7049H145.082V62.3182H159.25V60.7049Z" fill="#353535"/>
<path d="M159.25 105.457H145.082V107.07H159.25V105.457Z" fill="#353535"/>
<path d="M135.741 97.3195H123.702V98.9329H135.741V97.3195Z" fill="#BABABA"/>
<path d="M159.25 97.3195H145.082V98.9329H159.25V97.3195Z" fill="#353535"/>
<path d="M83.6107 60.7049H77.2168V62.3182H83.6107V60.7049Z" fill="#BABABA"/>
<path d="M116.277 60.7049H91.7778V62.3182H116.277V60.7049Z" fill="#353535"/>
<path d="M91.1818 64.7725H77.2168V66.3859H91.1818V64.7725Z" fill="#BABABA"/>
<path d="M116.278 64.7725H101.052V66.3859H116.278V64.7725Z" fill="#353535"/>
<path d="M91.1818 97.3195H77.2168V98.9329H91.1818V97.3195Z" fill="#BABABA"/>
<path d="M116.278 97.3195H101.052V98.9329H116.278V97.3195Z" fill="#353535"/>
<path d="M83.6107 101.388H77.2168V103.001H83.6107V101.388Z" fill="#BABABA"/>
<path d="M116.277 101.388H91.7778V103.001H116.277V101.388Z" fill="#353535"/>
<path d="M91.1818 105.457H77.2168V107.07H91.1818V105.457Z" fill="#BABABA"/>
<path d="M116.278 105.457H101.052V107.07H116.278V105.457Z" fill="#353535"/>
<path d="M134.659 68.8411H123.702V70.4545H134.659V68.8411Z" fill="#BABABA"/>
<path d="M159.249 68.8411H146.355V70.4545H159.249V68.8411Z" fill="#353535"/>
<path d="M159.25 89.1833H140.81V90.7966H159.25V89.1833Z" fill="#353535"/>
<path d="M136.411 72.9098H123.702V74.5231H136.411V72.9098Z" fill="#BABABA"/>
<path d="M159.25 72.9098H145.394V74.5231H159.25V72.9098Z" fill="#353535"/>
<path d="M159.249 93.2509H139.214V94.8642H159.249V93.2509Z" fill="#353535"/>
<path d="M129.521 76.9784H123.702V78.5917H129.521V76.9784Z" fill="#BABABA"/>
<path d="M159.25 76.9784H136.954V78.5917H159.25V76.9784Z" fill="#353535"/>
<path d="M129.52 101.388V103.001H123.702V101.388" fill="#BABABA"/>
<path d="M159.25 101.388H136.954V103.001H159.25V101.388Z" fill="#353535"/>
<path d="M136.411 81.046H123.702V82.6594H136.411V81.046Z" fill="#BABABA"/>
<path d="M159.25 81.046H145.394V82.6594H159.25V81.046Z" fill="#353535"/>
<path d="M133.803 64.7725H123.702V66.3859H133.803V64.7725Z" fill="#BABABA"/>
<path d="M159.25 64.7725H147V66.3859H159.25V64.7725Z" fill="#353535"/>
<path d="M84.2422 68.8411H77.2168V70.4545H84.2422V68.8411Z" fill="#BABABA"/>
<path d="M116.277 68.8411H89.3569V70.4545H116.277V68.8411Z" fill="#353535"/>
<path d="M116.277 72.9098H93.4663V74.5231H116.277V72.9098Z" fill="#353535"/>
<path d="M91.1818 85.1146H77.2168V86.728H91.1818V85.1146Z" fill="#BABABA"/>
<path d="M116.278 85.1146H101.052V86.728H116.278V85.1146Z" fill="#353535"/>
<path d="M84.2422 89.1833H77.2168V90.7966H84.2422V89.1833Z" fill="#BABABA"/>
<path d="M116.277 89.1833H89.3569V90.7966H116.277V89.1833Z" fill="#353535"/>
<path d="M88.3152 93.2509H77.2168V94.8642H88.3152V93.2509Z" fill="#BABABA"/>
<path d="M116.277 93.2509H102.817V94.8642H116.277V93.2509Z" fill="#353535"/>
<path d="M116.278 76.9784H96.4453V78.5917H116.278V76.9784Z" fill="#353535"/>
<path d="M88.3152 81.046H77.2168V82.6594H88.3152V81.046Z" fill="#BABABA"/>
<path d="M116.277 81.046H102.817V82.6594H116.277V81.046Z" fill="#353535"/>
<path d="M75.5529 52.5676H75.0679V111.138H75.5529V52.5676Z" fill="#A8A8A8"/>
<path d="M122.113 52.5676H121.628V111.138H122.113V52.5676Z" fill="#A8A8A8"/>
</svg>
