<svg width="234" height="158" viewBox="0 0 234 158" fill="none" xmlns="http://www.w3.org/2000/svg">
<path d="M234 0H0V158H234V0Z" fill="white"/>
<g opacity="0.45">
<path d="M234 0H0V158H234V0Z" fill="black"/>
</g>
<path d="M163.621 40.2543H70.3794V116.947H163.621V40.2543Z" fill="#F4F4F4"/>
<path d="M99.1459 44.6175H75.0676V47.5061H99.1459V44.6175Z" fill="#6F6F6F"/>
<path d="M100.699 52.4996H75.0676V54.1156H100.699V52.4996Z" fill="#A8A8A8"/>
<path d="M91.9588 60.1907H77.7908V61.8067H91.9588V60.1907Z" fill="#161616"/>
<path d="M115.01 64.3923H75.2295V64.8771H115.01V64.3923Z" fill="#E0E0E0"/>
<path d="M144.939 52.4996H119.308V54.1156H144.939V52.4996Z" fill="#A8A8A8"/>
<path d="M152.538 60.1907H122.032V61.8067H152.538V60.1907Z" fill="#161616"/>
<path d="M159.25 64.3923H119.469V64.8771H159.25V64.3923Z" fill="#E0E0E0"/>
<path d="M100.699 74.9306H75.0676V76.5466H100.699V74.9306Z" fill="#A8A8A8"/>
<path d="M99.1459 82.6218H77.7908V84.2378H99.1459V82.6218Z" fill="#161616"/>
<path d="M115.01 86.8234H75.2295V87.3082H115.01V86.8234Z" fill="#E0E0E0"/>
<path d="M144.939 74.9306H119.308V76.5466H144.939V74.9306Z" fill="#A8A8A8"/>
<path d="M141.338 82.6218H122.032V84.2378H141.338V82.6218Z" fill="#161616"/>
<path d="M159.25 86.8234H119.469V87.3082H159.25V86.8234Z" fill="#E0E0E0"/>
<path d="M100.699 96.0366H75.0676V97.6526H100.699V96.0366Z" fill="#A8A8A8"/>
<path d="M107.043 103.728H77.7908V105.344H107.043V103.728Z" fill="#161616"/>
<path d="M115.01 107.929H75.2295V108.414H115.01V107.929Z" fill="#E0E0E0"/>
<path d="M144.939 96.0366H119.308V97.6526H144.939V96.0366Z" fill="#A8A8A8"/>
<path d="M147.573 103.728H122.032V105.344H147.573V103.728Z" fill="#161616"/>
<path d="M159.25 107.929H119.469V108.414H159.25V107.929Z" fill="#E0E0E0"/>
</svg>
