<svg width="194" height="122" viewBox="0 0 194 122" fill="none" xmlns="http://www.w3.org/2000/svg">
<path d="M194 0H0V121.25H194V0Z" fill="white"/>
<g opacity="0.45">
<path d="M194 0H0V121.25H194V0Z" fill="black"/>
</g>
<path d="M92.2137 23H42V99.724H92.2137V23Z" fill="white"/>
<path d="M70.7667 27.365H46.6885V30.2548H70.7667V27.365Z" fill="#161616"/>
<path d="M72.3197 35.2502H46.6885V36.8669H72.3197V35.2502Z" fill="#525252"/>
<path d="M63.5797 42.9446H49.4116V44.5612H63.5797V42.9446Z" fill="#161616"/>
<path d="M86.6302 47.1479H46.8501V47.633H86.6302V47.1479Z" fill="#C6C6C6"/>
<path d="M72.3197 57.6907H46.6885V59.3073H72.3197V57.6907Z" fill="#525252"/>
<path d="M70.7668 65.385H49.4116V67.0017H70.7668V65.385Z" fill="#161616"/>
<path d="M86.6302 69.5884H46.8501V70.0734H86.6302V69.5884Z" fill="#C6C6C6"/>
<path d="M72.3197 78.8053H46.6885V80.422H72.3197V78.8053Z" fill="#525252"/>
<path d="M78.6642 86.4996H49.4116V88.1163H78.6642V86.4996Z" fill="#161616"/>
<path d="M86.6302 90.703H46.8501V91.188H86.6302V90.703Z" fill="#C6C6C6"/>
<path d="M151.214 23H101V99.724H151.214V23Z" fill="#262626"/>
<path d="M129.767 27.365H105.688V30.2548H129.767V27.365Z" fill="#F4F4F4"/>
<path d="M131.32 35.2502H105.688V36.8669H131.32V35.2502Z" fill="#C6C6C6"/>
<path d="M122.58 42.9446H108.412V44.5612H122.58V42.9446Z" fill="#F4F4F4"/>
<path d="M145.63 47.1479H105.85V47.633H145.63V47.1479Z" fill="#525252"/>
<path d="M131.32 57.6907H105.688V59.3073H131.32V57.6907Z" fill="#C6C6C6"/>
<path d="M129.767 65.385H108.412V67.0017H129.767V65.385Z" fill="#F4F4F4"/>
<path d="M145.63 69.5884H105.85V70.0734H145.63V69.5884Z" fill="#525252"/>
<path d="M131.32 78.8053H105.688V80.422H131.32V78.8053Z" fill="#C6C6C6"/>
<path d="M137.664 86.4996H108.412V88.1163H137.664V86.4996Z" fill="#F4F4F4"/>
<path d="M145.63 90.703H105.85V91.188H145.63V90.703Z" fill="#525252"/>
</svg>
